<mxfile host="app.diagrams.net" modified="2023-11-20T15:35:30.720Z" agent="Mozilla/5.0 (X11; Linux x86_64; rv:109.0) Gecko/20100101 Firefox/119.0" etag="0iXLv1c2jYjtzrYo9b6M" version="22.1.3" type="device">
  <diagram name="Страница — 1" id="rdJQRsILuA15fQaMibp1">
    <mxGraphModel dx="1195" dy="658" grid="1" gridSize="10" guides="1" tooltips="1" connect="1" arrows="1" fold="1" page="1" pageScale="1" pageWidth="827" pageHeight="1169" math="0" shadow="0">
      <root>
        <mxCell id="0" />
        <mxCell id="1" parent="0" />
        <mxCell id="B_S5EMnzCd8mxZyiqfpO-1" value="Пользователь" style="rounded=0;whiteSpace=wrap;html=1;" vertex="1" parent="1">
          <mxGeometry x="290" y="40" width="100" height="50" as="geometry" />
        </mxCell>
        <mxCell id="B_S5EMnzCd8mxZyiqfpO-2" value="&lt;div&gt;1.0&lt;/div&gt;&lt;div&gt;Вход в аккаунт&lt;br&gt;&lt;/div&gt;" style="ellipse;whiteSpace=wrap;html=1;aspect=fixed;" vertex="1" parent="1">
          <mxGeometry x="50" y="250" width="80" height="80" as="geometry" />
        </mxCell>
        <mxCell id="B_S5EMnzCd8mxZyiqfpO-3" value="&lt;div&gt;5.0&lt;/div&gt;&lt;div&gt;Выход из аккаунта&lt;br&gt;&lt;/div&gt;" style="ellipse;whiteSpace=wrap;html=1;aspect=fixed;" vertex="1" parent="1">
          <mxGeometry x="450" y="250" width="80" height="80" as="geometry" />
        </mxCell>
        <mxCell id="B_S5EMnzCd8mxZyiqfpO-4" value="Гость" style="rounded=0;whiteSpace=wrap;html=1;" vertex="1" parent="1">
          <mxGeometry x="40" y="40" width="100" height="50" as="geometry" />
        </mxCell>
        <mxCell id="B_S5EMnzCd8mxZyiqfpO-7" value="&lt;div&gt;2.0&lt;/div&gt;&lt;div&gt;Управление записными книжками&lt;br&gt;&lt;/div&gt;" style="ellipse;whiteSpace=wrap;html=1;aspect=fixed;" vertex="1" parent="1">
          <mxGeometry x="150" y="250" width="80" height="80" as="geometry" />
        </mxCell>
        <mxCell id="B_S5EMnzCd8mxZyiqfpO-8" value="&lt;div&gt;3.0&lt;/div&gt;&lt;div&gt;Управление записками&lt;br&gt;&lt;/div&gt;" style="ellipse;whiteSpace=wrap;html=1;aspect=fixed;" vertex="1" parent="1">
          <mxGeometry x="250" y="250" width="80" height="80" as="geometry" />
        </mxCell>
        <mxCell id="B_S5EMnzCd8mxZyiqfpO-9" value="&lt;div&gt;4.0&lt;/div&gt;&lt;div&gt;Управление списками&lt;/div&gt;&lt;div&gt;дел&lt;br&gt;&lt;/div&gt;" style="ellipse;whiteSpace=wrap;html=1;aspect=fixed;" vertex="1" parent="1">
          <mxGeometry x="350" y="250" width="80" height="80" as="geometry" />
        </mxCell>
        <mxCell id="B_S5EMnzCd8mxZyiqfpO-22" value="" style="endArrow=classic;html=1;rounded=0;exitX=0.5;exitY=1;exitDx=0;exitDy=0;entryX=0.5;entryY=0;entryDx=0;entryDy=0;" edge="1" parent="1" source="B_S5EMnzCd8mxZyiqfpO-4" target="B_S5EMnzCd8mxZyiqfpO-2">
          <mxGeometry width="50" height="50" relative="1" as="geometry">
            <mxPoint x="370" y="220" as="sourcePoint" />
            <mxPoint x="420" y="170" as="targetPoint" />
          </mxGeometry>
        </mxCell>
        <mxCell id="B_S5EMnzCd8mxZyiqfpO-23" value="" style="endArrow=classic;html=1;rounded=0;exitX=0.5;exitY=1;exitDx=0;exitDy=0;entryX=0.5;entryY=0;entryDx=0;entryDy=0;" edge="1" parent="1" source="B_S5EMnzCd8mxZyiqfpO-1" target="B_S5EMnzCd8mxZyiqfpO-7">
          <mxGeometry width="50" height="50" relative="1" as="geometry">
            <mxPoint x="100" y="100" as="sourcePoint" />
            <mxPoint x="100" y="260" as="targetPoint" />
          </mxGeometry>
        </mxCell>
        <mxCell id="B_S5EMnzCd8mxZyiqfpO-28" value="&lt;div style=&quot;font-size: 8px;&quot;&gt;Добавление и&lt;/div&gt;&lt;div style=&quot;font-size: 8px;&quot;&gt;удаление&lt;/div&gt;&lt;div style=&quot;font-size: 8px;&quot;&gt;записных&lt;/div&gt;&lt;div style=&quot;font-size: 8px;&quot;&gt;книжек&lt;/div&gt;" style="edgeLabel;html=1;align=center;verticalAlign=middle;resizable=0;points=[];fontSize=8;" vertex="1" connectable="0" parent="B_S5EMnzCd8mxZyiqfpO-23">
          <mxGeometry relative="1" as="geometry">
            <mxPoint x="-45" y="40" as="offset" />
          </mxGeometry>
        </mxCell>
        <mxCell id="B_S5EMnzCd8mxZyiqfpO-24" value="" style="endArrow=classic;html=1;rounded=0;entryX=0.5;entryY=0;entryDx=0;entryDy=0;exitX=0.5;exitY=1;exitDx=0;exitDy=0;" edge="1" parent="1" source="B_S5EMnzCd8mxZyiqfpO-1" target="B_S5EMnzCd8mxZyiqfpO-8">
          <mxGeometry width="50" height="50" relative="1" as="geometry">
            <mxPoint x="360" y="130" as="sourcePoint" />
            <mxPoint x="200" y="260" as="targetPoint" />
          </mxGeometry>
        </mxCell>
        <mxCell id="B_S5EMnzCd8mxZyiqfpO-29" value="&lt;div style=&quot;font-size: 8px;&quot;&gt;Добавление и&lt;/div&gt;&lt;div style=&quot;font-size: 8px;&quot;&gt;удаление&lt;/div&gt;&lt;div style=&quot;font-size: 8px;&quot;&gt;записок&lt;br style=&quot;font-size: 8px;&quot;&gt;&lt;/div&gt;" style="edgeLabel;html=1;align=center;verticalAlign=middle;resizable=0;points=[];fontSize=8;" vertex="1" connectable="0" parent="B_S5EMnzCd8mxZyiqfpO-24">
          <mxGeometry relative="1" as="geometry">
            <mxPoint x="-15" y="40" as="offset" />
          </mxGeometry>
        </mxCell>
        <mxCell id="B_S5EMnzCd8mxZyiqfpO-25" value="" style="endArrow=classic;html=1;rounded=0;entryX=0.5;entryY=0;entryDx=0;entryDy=0;exitX=0.5;exitY=1;exitDx=0;exitDy=0;" edge="1" parent="1" source="B_S5EMnzCd8mxZyiqfpO-1" target="B_S5EMnzCd8mxZyiqfpO-9">
          <mxGeometry width="50" height="50" relative="1" as="geometry">
            <mxPoint x="350" y="100" as="sourcePoint" />
            <mxPoint x="300" y="260" as="targetPoint" />
          </mxGeometry>
        </mxCell>
        <mxCell id="B_S5EMnzCd8mxZyiqfpO-30" value="&lt;div style=&quot;font-size: 8px;&quot;&gt;Добавление,&lt;/div&gt;&lt;div style=&quot;font-size: 8px;&quot;&gt;удаление&lt;/div&gt;&lt;div style=&quot;font-size: 8px;&quot;&gt;и обновление&lt;/div&gt;&lt;div style=&quot;font-size: 8px;&quot;&gt;списков дел&lt;/div&gt;" style="edgeLabel;html=1;align=center;verticalAlign=middle;resizable=0;points=[];fontSize=8;" vertex="1" connectable="0" parent="B_S5EMnzCd8mxZyiqfpO-25">
          <mxGeometry relative="1" as="geometry">
            <mxPoint x="15" y="40" as="offset" />
          </mxGeometry>
        </mxCell>
        <mxCell id="B_S5EMnzCd8mxZyiqfpO-26" value="" style="endArrow=classic;html=1;rounded=0;entryX=0.5;entryY=0;entryDx=0;entryDy=0;exitX=0.5;exitY=1;exitDx=0;exitDy=0;" edge="1" parent="1" source="B_S5EMnzCd8mxZyiqfpO-1" target="B_S5EMnzCd8mxZyiqfpO-3">
          <mxGeometry width="50" height="50" relative="1" as="geometry">
            <mxPoint x="350" y="100" as="sourcePoint" />
            <mxPoint x="400" y="260" as="targetPoint" />
          </mxGeometry>
        </mxCell>
        <mxCell id="B_S5EMnzCd8mxZyiqfpO-31" value="" style="endArrow=classic;html=1;rounded=0;exitX=0.5;exitY=1;exitDx=0;exitDy=0;entryX=0;entryY=0;entryDx=0;entryDy=0;" edge="1" parent="1" source="B_S5EMnzCd8mxZyiqfpO-2" target="B_S5EMnzCd8mxZyiqfpO-38">
          <mxGeometry width="50" height="50" relative="1" as="geometry">
            <mxPoint x="100" y="100" as="sourcePoint" />
            <mxPoint x="250" y="380" as="targetPoint" />
          </mxGeometry>
        </mxCell>
        <mxCell id="B_S5EMnzCd8mxZyiqfpO-44" value="&lt;div style=&quot;font-size: 8px;&quot;&gt;Обновление&lt;/div&gt;&lt;div style=&quot;font-size: 8px;&quot;&gt;списка&lt;/div&gt;&lt;div style=&quot;font-size: 8px;&quot;&gt;пользователей&lt;br style=&quot;font-size: 8px;&quot;&gt;&lt;/div&gt;" style="edgeLabel;html=1;align=center;verticalAlign=middle;resizable=0;points=[];fontSize=8;" vertex="1" connectable="0" parent="B_S5EMnzCd8mxZyiqfpO-31">
          <mxGeometry relative="1" as="geometry">
            <mxPoint as="offset" />
          </mxGeometry>
        </mxCell>
        <mxCell id="B_S5EMnzCd8mxZyiqfpO-34" value="" style="endArrow=classic;html=1;rounded=0;exitX=0.5;exitY=1;exitDx=0;exitDy=0;entryX=0.25;entryY=0;entryDx=0;entryDy=0;" edge="1" parent="1" source="B_S5EMnzCd8mxZyiqfpO-7" target="B_S5EMnzCd8mxZyiqfpO-38">
          <mxGeometry width="50" height="50" relative="1" as="geometry">
            <mxPoint x="260" y="390" as="sourcePoint" />
            <mxPoint x="310" y="360" as="targetPoint" />
          </mxGeometry>
        </mxCell>
        <mxCell id="B_S5EMnzCd8mxZyiqfpO-41" value="&lt;div style=&quot;font-size: 8px;&quot;&gt;Обновление&lt;/div&gt;&lt;div style=&quot;font-size: 8px;&quot;&gt;перечня&lt;/div&gt;&lt;div style=&quot;font-size: 8px;&quot;&gt;записных&lt;/div&gt;&lt;div style=&quot;font-size: 8px;&quot;&gt;книжек&lt;/div&gt;" style="edgeLabel;html=1;align=center;verticalAlign=middle;resizable=0;points=[];fontSize=8;" vertex="1" connectable="0" parent="B_S5EMnzCd8mxZyiqfpO-34">
          <mxGeometry relative="1" as="geometry">
            <mxPoint as="offset" />
          </mxGeometry>
        </mxCell>
        <mxCell id="B_S5EMnzCd8mxZyiqfpO-35" value="" style="endArrow=classic;html=1;rounded=0;exitX=0.5;exitY=1;exitDx=0;exitDy=0;entryX=0.75;entryY=0;entryDx=0;entryDy=0;" edge="1" parent="1" source="B_S5EMnzCd8mxZyiqfpO-8" target="B_S5EMnzCd8mxZyiqfpO-38">
          <mxGeometry width="50" height="50" relative="1" as="geometry">
            <mxPoint x="200" y="340" as="sourcePoint" />
            <mxPoint x="410" y="380" as="targetPoint" />
          </mxGeometry>
        </mxCell>
        <mxCell id="B_S5EMnzCd8mxZyiqfpO-42" value="&lt;div style=&quot;font-size: 8px;&quot;&gt;Обновление&lt;/div&gt;&lt;div style=&quot;font-size: 8px;&quot;&gt;списка&lt;/div&gt;&lt;div style=&quot;font-size: 8px;&quot;&gt;записок&lt;/div&gt;" style="edgeLabel;html=1;align=center;verticalAlign=middle;resizable=1;points=[];movable=1;rotatable=1;deletable=1;editable=1;locked=0;connectable=1;fontSize=8;" vertex="1" connectable="0" parent="B_S5EMnzCd8mxZyiqfpO-35">
          <mxGeometry relative="1" as="geometry">
            <mxPoint as="offset" />
          </mxGeometry>
        </mxCell>
        <mxCell id="B_S5EMnzCd8mxZyiqfpO-39" value="" style="group" vertex="1" connectable="0" parent="1">
          <mxGeometry x="170" y="430" width="150" height="50" as="geometry" />
        </mxCell>
        <mxCell id="B_S5EMnzCd8mxZyiqfpO-36" value="" style="endArrow=none;html=1;rounded=0;" edge="1" parent="B_S5EMnzCd8mxZyiqfpO-39">
          <mxGeometry width="50" height="50" relative="1" as="geometry">
            <mxPoint as="sourcePoint" />
            <mxPoint x="150" as="targetPoint" />
          </mxGeometry>
        </mxCell>
        <mxCell id="B_S5EMnzCd8mxZyiqfpO-37" value="" style="endArrow=none;html=1;rounded=0;" edge="1" parent="B_S5EMnzCd8mxZyiqfpO-39">
          <mxGeometry width="50" height="50" relative="1" as="geometry">
            <mxPoint y="50" as="sourcePoint" />
            <mxPoint x="150" y="50" as="targetPoint" />
          </mxGeometry>
        </mxCell>
        <mxCell id="B_S5EMnzCd8mxZyiqfpO-38" value="&lt;div&gt;База данных&lt;/div&gt;&lt;div&gt;веб-приложения&lt;br&gt;&lt;/div&gt;" style="text;html=1;strokeColor=none;fillColor=none;align=center;verticalAlign=middle;whiteSpace=wrap;rounded=0;" vertex="1" parent="B_S5EMnzCd8mxZyiqfpO-39">
          <mxGeometry width="150" height="50" as="geometry" />
        </mxCell>
        <mxCell id="B_S5EMnzCd8mxZyiqfpO-40" value="" style="endArrow=classic;html=1;rounded=0;exitX=0.5;exitY=1;exitDx=0;exitDy=0;entryX=1;entryY=0;entryDx=0;entryDy=0;" edge="1" parent="1" source="B_S5EMnzCd8mxZyiqfpO-9" target="B_S5EMnzCd8mxZyiqfpO-38">
          <mxGeometry width="50" height="50" relative="1" as="geometry">
            <mxPoint x="300" y="340" as="sourcePoint" />
            <mxPoint x="343" y="470" as="targetPoint" />
          </mxGeometry>
        </mxCell>
        <mxCell id="B_S5EMnzCd8mxZyiqfpO-43" value="&lt;div style=&quot;font-size: 8px;&quot;&gt;Обновление&lt;/div&gt;&lt;div style=&quot;font-size: 8px;&quot;&gt;перечня&lt;/div&gt;&lt;div style=&quot;font-size: 8px;&quot;&gt;списков&lt;/div&gt;&lt;div style=&quot;font-size: 8px;&quot;&gt;дел&lt;/div&gt;" style="edgeLabel;html=1;align=center;verticalAlign=middle;resizable=0;points=[];fontSize=8;" vertex="1" connectable="0" parent="B_S5EMnzCd8mxZyiqfpO-40">
          <mxGeometry relative="1" as="geometry">
            <mxPoint as="offset" />
          </mxGeometry>
        </mxCell>
      </root>
    </mxGraphModel>
  </diagram>
</mxfile>
